# xmcd CD database file
#
# Track frame offsets:
#	150
#	25386
#	48958
#	61775
#	77011
#	103748
#	123302
#	143064
#	168624
#	184991
#	202773
#
# Disc length: 3046 seconds
#
# Revision: 7
# Processed by: cddbd v1.5.2PL0 Copyright (c) Steve Scherf et al.
# Submitted via: CDex 1.92
#
DISCID=900be40b
DTITLE=Katatonia - Last Fair Deal Gone Down
DYEAR=2001
DGENRE=Doom Metal
TTITLE0=Disposession
TTITLE1=Chrome
TTITLE2=We Must Bury You
TTITLE3=Teargas
TTITLE4=I Transpire
TTITLE5=Tonight's Music
TTITLE6=Clean Today
TTITLE7=The Future Of Speech
TTITLE8=Passing Bird
TTITLE9=Sweet Nurse
TTITLE10=Don't Tell A Soul
EXTD=2001\n YEAR: 2001
EXTT0=
EXTT1=
EXTT2=
EXTT3=
EXTT4=
EXTT5=
EXTT6=
EXTT7=
EXTT8=
EXTT9=
EXTT10=
PLAYORDER=
